<svg xmlns="http://www.w3.org/2000/svg" data-name="Layer 1" id="Layer_1" viewBox="0 0 64 64"><title></title><path d="M37,23a1,1,0,0,0-1-1H28a1,1,0,0,0-1,1v3H23a1,1,0,0,0-1,1V39a1,1,0,0,0,1,1H41a1,1,0,0,0,1-1V27a1,1,0,0,0-1-1H37Zm-8,1h6v2H29ZM40,38H24V31.22a10.6,10.6,0,0,0,5,2.463V35a1,1,0,0,0,1,1h4a1,1,0,0,0,1-1V33.683a10.6,10.6,0,0,0,5-2.463Zm-9-4V32h2v2Zm8.825-6c-.545,1.609-2.367,2.987-4.825,3.623V31a1,1,0,0,0-1-1H30a1,1,0,0,0-1,1v.623c-2.458-.636-4.28-2.014-4.825-3.623h15.65Z"></path><path d="M56.1,47.084a1,1,0,0,0-1.352,0l-.057.053-1.414-1.3A11.42,11.42,0,0,0,44.3,43.033l-3.045-.917a2.725,2.725,0,0,0-2.622.587,2.406,2.406,0,0,0,.388,3.873l2.518,1.532a16.621,16.621,0,0,1-8.895-2.664l-1.921-1.253a3.153,3.153,0,0,0-3.8.31,2.736,2.736,0,0,0,.266,4.3l3.594,2.556a25.731,25.731,0,0,0,14.879,4.673.98.98,0,0,0,.3.6l5.572,5.111a1,1,0,0,0,1.352,0l8.8-8.069a1,1,0,0,0,0-1.474ZM31.938,49.725l-3.595-2.556a.737.737,0,0,1-.073-1.194,1.137,1.137,0,0,1,1.358-.109l1.921,1.253a18.913,18.913,0,0,0,14.985,2.388,1,1,0,0,0,.041-1.927L42.5,46.354l-2.443-1.487a.44.44,0,0,1-.23-.332.416.416,0,0,1,.154-.358.737.737,0,0,1,.693-.146l3.249.978a.993.993,0,0,0,.423.033,9.433,9.433,0,0,1,7.581,2.272l1.285,1.18L47.23,53.981A23.834,23.834,0,0,1,31.938,49.725ZM52.2,59.643,48.108,55.89l7.319-6.712,4.094,3.753Z"></path><path d="M7.9,16.916a1,1,0,0,0,1.352,0l.057-.053,1.414,1.3A11.413,11.413,0,0,0,19.7,20.967l3.045.917A2.758,2.758,0,0,0,23.54,22a2.71,2.71,0,0,0,1.829-.7,2.406,2.406,0,0,0-.388-3.873l-2.518-1.532a16.621,16.621,0,0,1,8.9,2.664l1.921,1.253a3.15,3.15,0,0,0,3.8-.31,2.736,2.736,0,0,0-.266-4.3l-3.594-2.556A25.723,25.723,0,0,0,18.344,7.98a.983.983,0,0,0-.3-.606L12.475,2.263a1,1,0,0,0-1.352,0l-8.8,8.069a1,1,0,0,0,0,1.474Zm24.166-2.641,3.594,2.556a.737.737,0,0,1,.073,1.194,1.143,1.143,0,0,1-1.358.109l-1.921-1.253a18.913,18.913,0,0,0-14.985-2.388,1,1,0,0,0-.041,1.927L21.5,17.646l2.443,1.487a.44.44,0,0,1,.23.332.416.416,0,0,1-.154.358.745.745,0,0,1-.693.146l-3.249-.978a1.009,1.009,0,0,0-.288-.042,1.02,1.02,0,0,0-.135.009,9.432,9.432,0,0,1-7.581-2.272l-1.285-1.18,5.984-5.487A23.83,23.83,0,0,1,32.063,14.275ZM11.8,4.357,15.892,8.11,8.573,14.822,4.479,11.069Z"></path><path d="M42.776,21.985c5.693,1,6.234,1.546,7.239,7.239a1,1,0,0,0,1.97,0c1.005-5.693,1.546-6.234,7.239-7.239a1,1,0,0,0,0-1.97c-5.693-1-6.234-1.546-7.239-7.239a1,1,0,0,0-1.97,0c-1.005,5.693-1.546,6.234-7.239,7.239a1,1,0,0,0,0,1.97ZM51,17.2A5.7,5.7,0,0,0,54.8,21,5.7,5.7,0,0,0,51,24.8,5.7,5.7,0,0,0,47.2,21,5.7,5.7,0,0,0,51,17.2Z"></path><path d="M21.224,42.015c-5.693-1.005-6.234-1.546-7.239-7.239a1,1,0,0,0-1.97,0c-1.005,5.693-1.546,6.234-7.239,7.239a1,1,0,0,0,0,1.97c5.693,1.005,6.234,1.546,7.239,7.239a1,1,0,0,0,1.97,0c1.005-5.693,1.546-6.234,7.239-7.239a1,1,0,0,0,0-1.97ZM13,46.8A5.7,5.7,0,0,0,9.2,43,5.7,5.7,0,0,0,13,39.2,5.7,5.7,0,0,0,16.8,43,5.7,5.7,0,0,0,13,46.8Z"></path></svg>