<svg xmlns="http://www.w3.org/2000/svg" id="Layer_1" viewBox="0 0 64 64" data-name="Layer 1"><path d="m62 4h-60a1 1 0 0 0 -1 1v38a1 1 0 0 0 1 1h22.59a7.89 7.89 0 0 0 .67 1.29l-10.8 7a1 1 0 0 0 -.4 1.18 1 1 0 0 0 1 .65l5.39-.6-.6 5.39a1 1 0 0 0 .65 1 1 1 0 0 0 1.18-.4l7.21-11.15a8 8 0 0 0 6.12 0l7.21 11.15a1 1 0 0 0 1.18.4 1 1 0 0 0 .65-1l-.6-5.39 5.39.6a1 1 0 0 0 1-.65 1 1 0 0 0 -.4-1.18l-10.8-7a7.89 7.89 0 0 0 .77-1.29h22.59a1 1 0 0 0 1-1v-38a1 1 0 0 0 -1-1zm-39.65 50.89.27-2.41a1 1 0 0 0 -1.1-1.1l-2.41.27 7.43-4.82a8.64 8.64 0 0 0 .67.56zm9.65-7.89a6 6 0 1 1 6-6 6 6 0 0 1 -6 6zm12.89 4.65-2.41-.27a1 1 0 0 0 -1.1 1.1l.27 2.41-4.86-7.5a8.64 8.64 0 0 0 .67-.56zm-12.89-18.65a8 8 0 0 0 -7.41 5h-12.67a6 6 0 0 0 -4.92-4.92v-18.16a6 6 0 0 0 4.92-4.92h40.16a6 6 0 0 0 4.92 4.92v18.16a6 6 0 0 0 -4.92 4.92h-12.67a8 8 0 0 0 -7.41-5zm29 9h-21.07a7.18 7.18 0 0 0 0-2h13.07a1 1 0 0 0 1-1 4 4 0 0 1 4-4 1 1 0 0 0 1-1v-20a1 1 0 0 0 -1-1 4 4 0 0 1 -4-4 1 1 0 0 0 -1-1h-42a1 1 0 0 0 -1 1 4 4 0 0 1 -4 4 1 1 0 0 0 -1 1v20a1 1 0 0 0 1 1 4 4 0 0 1 4 4 1 1 0 0 0 1 1h13.07a7.18 7.18 0 0 0 0 2h-21.07v-36h58z"></path><path d="m21 13h22v2h-22z"></path><path d="m13 17h38v2h-38z"></path><path d="m13 21h38v2h-38z"></path><path d="m13 25h38v2h-38z"></path><path d="m13 29h38v2h-38z"></path><path d="m35.15 39.3-1.54-.23-.7-1.49a1 1 0 0 0 -1.82 0l-.7 1.49-1.54.23a1 1 0 0 0 -.8.67 1 1 0 0 0 .23 1l1.15 1.18-.27 1.67a1 1 0 0 0 1.47 1l1.37-.7 1.37.76a1 1 0 0 0 .48.12 1 1 0 0 0 .58-.18 1 1 0 0 0 .41-1l-.27-1.67 1.15-1.15a1 1 0 0 0 .28-1 1 1 0 0 0 -.85-.7zm-2.37 1.83a1 1 0 0 0 -.27.86v.14h-.06a1 1 0 0 0 -1 0h-.06v-.14a1 1 0 0 0 -.27-.86l-.05-.13h.15a1 1 0 0 0 .78-.6 1 1 0 0 0 .76.56h.15z"></path></svg>