<svg xmlns="http://www.w3.org/2000/svg" id="Layer_1" viewBox="0 0 64 64" data-name="Layer 1"><path d="m27 25h2.637v4h-1.728a1 1 0 0 0 -1 1v4a1 1 0 0 0 1 1h9.091a1 1 0 0 0 1-1v-4a1 1 0 0 0 -1-1h-1.728v-9a1 1 0 0 0 -1-1h-3.635a4.834 4.834 0 0 0 -4.637 5 1 1 0 0 0 1 1zm3.637-4h2.635v9a1 1 0 0 0 1 1h1.728v2h-7.091v-2h1.728a1 1 0 0 0 1-1v-6a1 1 0 0 0 -1-1h-2.487a2.69 2.69 0 0 1 2.487-2z"></path><path d="m20.432 30.141-2.4 14.7a1 1 0 0 0 1.471 1.036l8.324-4.6-1.175 12.659-5.442-4.195a9.218 9.218 0 0 0 -10.82 0 1 1 0 0 0 0 1.584l6.4 4.934a8.889 8.889 0 0 0 5.41 1.754 9.227 9.227 0 0 0 4.163-.972l-.363 3.866a1 1 0 0 0 1 1.093h10a1 1 0 0 0 1-1.093l-.359-3.866a9.227 9.227 0 0 0 4.163.972 8.889 8.889 0 0 0 5.41-1.754l6.4-4.934a1 1 0 0 0 0-1.584 9.218 9.218 0 0 0 -10.82 0l-5.442 4.2-1.181-12.668 8.324 4.6a1 1 0 0 0 1.471-1.036l-2.4-14.7 10.148-10.4a1 1 0 0 0 -.565-1.687l-13.981-2.132-6.263-13.343a1 1 0 0 0 -1.81 0l-6.263 13.343-13.983 2.136a1 1 0 0 0 -.565 1.687zm-2.421 24.534-5.245-4.044a7.3 7.3 0 0 1 7.223.694l5.245 4.044a7.311 7.311 0 0 1 -7.223-.694zm26-3.35a7.307 7.307 0 0 1 7.223-.694l-5.245 4.044a7.309 7.309 0 0 1 -7.223.694zm-18.349-33.511a1 1 0 0 0 .754-.564l5.584-11.896 5.584 11.9a1 1 0 0 0 .754.564l12.587 1.923-9.141 9.369a1 1 0 0 0 -.271.859l2.147 13.159-8.177-4.519a1 1 0 0 0 -1.483.968l1.9 20.423h-7.8l1.9-20.423a1 1 0 0 0 -1.479-.968l-8.181 4.519 2.147-13.163a1 1 0 0 0 -.271-.859l-9.141-9.369z"></path><path d="m41 14a11.013 11.013 0 0 0 11-11 1 1 0 0 0 -1-1 11.013 11.013 0 0 0 -11 11 1 1 0 0 0 1 1zm8.938-9.937a9.018 9.018 0 0 1 -7.875 7.875 9.014 9.014 0 0 1 7.875-7.875z"></path><path d="m23 14a1 1 0 0 0 1-1 11.013 11.013 0 0 0 -11-11 1 1 0 0 0 -1 1 11.013 11.013 0 0 0 11 11zm-1.062-2.062a9.016 9.016 0 0 1 -7.875-7.875 9.016 9.016 0 0 1 7.875 7.875z"></path><path d="m7 42a11.013 11.013 0 0 0 11-11 1 1 0 0 0 -1-1 11.013 11.013 0 0 0 -11 11 1 1 0 0 0 1 1zm8.938-9.937a9.018 9.018 0 0 1 -7.875 7.875 9.014 9.014 0 0 1 7.875-7.875z"></path><path d="m46 31a11.013 11.013 0 0 0 11 11 1 1 0 0 0 1-1 11.013 11.013 0 0 0 -11-11 1 1 0 0 0 -1 1zm9.938 8.938a9.016 9.016 0 0 1 -7.875-7.875 9.016 9.016 0 0 1 7.875 7.875z"></path><path d="m40 60h2v2h-2z"></path><path d="m44 60h2v2h-2z"></path><path d="m48 60h2v2h-2z"></path><path d="m52 60h2v2h-2z"></path><path d="m56 60h2v2h-2z"></path><path d="m60 60h2v2h-2z"></path><path d="m2 60h2v2h-2z"></path><path d="m6 60h2v2h-2z"></path><path d="m10 60h2v2h-2z"></path><path d="m14 60h2v2h-2z"></path><path d="m18 60h2v2h-2z"></path><path d="m22 60h2v2h-2z"></path></svg>