<svg xmlns="http://www.w3.org/2000/svg" id="Layer_1" height="512" viewBox="0 0 512 512" width="512" data-name="Layer 1"><path d="m471.32 469.43h-268.79a8 8 0 0 1 0-16h260.79v-210h-260.69a8 8 0 0 1 0-16h268.69a8 8 0 0 1 8 8v226a8 8 0 0 1 -8 8z"></path><path d="m481 243.41h-278.37a8 8 0 0 1 0-16h270.37v-24.86h-270.37a8 8 0 0 1 0-16h278.37a8 8 0 0 1 8 8v40.86a8 8 0 0 1 -8 8z"></path><path d="m396.51 438.15a8 8 0 0 1 -8-8v-96.63a8 8 0 0 1 16 0v96.63a8 8 0 0 1 -8 8z"></path><path d="m436.31 389.84h-79.61a8 8 0 0 1 0-16h79.61a8 8 0 0 1 0 16z"></path><path d="m320.64 314.18h-86.64a8 8 0 0 1 -8-8v-39.48a8 8 0 0 1 8-8h86.61a8 8 0 0 1 8 8v39.48a8 8 0 0 1 -7.97 8zm-78.61-16h70.61v-23.48h-70.64z"></path><path d="m439.82 314.18h-86.61a8 8 0 0 1 -8-8v-39.48a8 8 0 0 1 8-8h86.61a8 8 0 0 1 8 8v39.48a8 8 0 0 1 -8 8zm-78.61-16h70.61v-23.48h-70.61z"></path><path d="m436.32 438.15h-79.61a8 8 0 0 1 -8-8v-96.63a8 8 0 0 1 8-8h79.61a8 8 0 0 1 8 8v96.63a8 8 0 0 1 -8 8zm-71.61-16h63.61v-80.63h-63.61z"></path><path d="m317.14 438.15h-79.61a8 8 0 0 1 -8-8v-96.63a8 8 0 0 1 8-8h79.61a8 8 0 0 1 8 8v96.63a8 8 0 0 1 -8 8zm-71.61-16h63.61v-80.63h-63.61z"></path><path d="m277.34 438.15a8 8 0 0 1 -8-8v-96.63a8 8 0 0 1 16 0v96.63a8 8 0 0 1 -8 8z"></path><path d="m317.14 389.83h-79.61a8 8 0 0 1 0-16h79.61a8 8 0 0 1 0 16z"></path><g id="_511300408" data-name=" 511300408"><path d="m202.63 469.44h-159.42a8 8 0 0 1 -8-8v-325.54a8 8 0 0 1 8-8h159.42a8 8 0 0 1 8 8v325.54a8 8 0 0 1 -8 8zm-151.42-16h143.42v-309.54h-143.42z"></path></g><g id="_511300336" data-name=" 511300336"><path d="m214.84 143.9h-183.84a8 8 0 0 1 -8-8v-40.13a8 8 0 0 1 8-8h183.84a8 8 0 0 1 8 8v40.13a8 8 0 0 1 -8 8zm-175.84-16h167.84v-24.13h-167.84z"></path></g><g id="_511299520" data-name=" 511299520"><path d="m156.77 469.44h-67.7a8 8 0 0 1 -8-8v-118.44a8 8 0 0 1 8-8h67.7a8 8 0 0 1 8 8v118.44a8 8 0 0 1 -8 8zm-59.7-16h51.7v-102.44h-51.7z"></path></g><g id="_511298680" data-name=" 511298680"><path d="m172.65 319.87h-99.46a8 8 0 0 1 -8-8v-31.07a8 8 0 0 1 8-8h99.46a8 8 0 0 1 8 8v31.07a8 8 0 0 1 -8 8zm-91.46-16h83.46v-15.07h-83.46z"></path></g><g id="_511298896" data-name=" 511298896"><path d="m172.65 261.32h-99.46a8 8 0 0 1 -8-8v-31.07a8 8 0 0 1 8-8h99.46a8 8 0 0 1 8 8v31.07a8 8 0 0 1 -8 8zm-91.46-16h83.46v-15.07h-83.46z"></path></g><g id="_511298752" data-name=" 511298752"><path d="m172.65 202.77h-99.46a8 8 0 0 1 -8-8v-31.06a8 8 0 0 1 8-8h99.46a8 8 0 0 1 8 8v31.06a8 8 0 0 1 -8 8zm-91.46-16h83.46v-15.06h-83.46z"></path></g><path d="m317.12 202.55h-59.85a8 8 0 0 1 -8-8.55l10-144a8 8 0 0 1 8-7.45h39.85a8 8 0 0 1 8 7.45l10 144a8 8 0 0 1 -8 8.55zm-51.27-16h42.69l-8.89-128h-24.91z"></path><path d="m426.35 202.55h-59.84a8 8 0 0 1 -8-8.55l10-144a8 8 0 0 1 8-7.45h39.84a8 8 0 0 1 8 7.45l10 144a8 8 0 0 1 -8 8.55zm-51.26-16h42.69l-8.89-128h-24.89z"></path></svg>