<svg xmlns="http://www.w3.org/2000/svg" data-name="Layer 1" id="Layer_1" viewBox="0 0 64 64"><title></title><path d="M3,34H16.019A9.994,9.994,0,1,0,24,18l-.037,0a16.22,16.22,0,0,1-.994-4.529,3.617,3.617,0,0,0-.06-3.868V8.883A6.9,6.9,0,0,0,16,2,6.9,6.9,0,0,0,9.091,8.883v.722a3.615,3.615,0,0,0-.054,3.877,16.463,16.463,0,0,1-2.3,7.271l-.794,1.313A4.578,4.578,0,0,0,2,26.57V33A1,1,0,0,0,3,34Zm7.76-21.5a1.409,1.409,0,0,1-.26-.9,1.411,1.411,0,0,1,.26-.9,1,1,0,0,0,.8-.526l1.282-2.405a1.431,1.431,0,0,1,1.83-.712,3.341,3.341,0,0,0,2.649,0,1.428,1.428,0,0,1,1.829.712l1.282,2.405a1,1,0,0,0,.8.526,1.411,1.411,0,0,1,.26.9,1.409,1.409,0,0,1-.26.9,1,1,0,0,0-.922,1,5.023,5.023,0,0,1-2.04,4.108l-1.819,1.3a.771.771,0,0,1-.918,0l-1.82-1.3A5.024,5.024,0,0,1,11.682,13.5,1,1,0,0,0,10.76,12.5ZM15.615,22.57a3.586,3.586,0,0,1-2.665-1.077,4.523,4.523,0,0,0,.47-1.643l.958.684a2.739,2.739,0,0,0,2.642.318A10.05,10.05,0,0,0,15.615,22.57Zm-3.959.478a5.323,5.323,0,0,0,3,1.421A9.935,9.935,0,0,0,14,28c0,.212.019.418.032.627L13.4,32H10.489a10.868,10.868,0,0,0,.6-3.706,10.139,10.139,0,0,0-.94-4.483A4.554,4.554,0,0,0,11.656,23.048ZM32,28a8,8,0,1,1-8-8A8.009,8.009,0,0,1,32,28ZM20.55,18.626v-.392a6.916,6.916,0,0,0,.951-1.4c.119.467.254.93.411,1.386A9.892,9.892,0,0,0,20.55,18.626ZM19.279,5.274a3.336,3.336,0,0,0-2.742-.059,1.352,1.352,0,0,1-1.073,0,3.338,3.338,0,0,0-2.741.059,4.854,4.854,0,0,1,6.556,0ZM10.506,16.85a6.9,6.9,0,0,0,.944,1.385v1.2a2.527,2.527,0,0,1-.414,1.4A2.59,2.59,0,0,1,8.87,22H8.319l.129-.214A18.515,18.515,0,0,0,10.506,16.85ZM4,26.57A2.59,2.59,0,0,1,6.58,24H7.727c.351,0,1.364,1.477,1.364,4.294A7.64,7.64,0,0,1,8.287,32H4Z"></path><path d="M23,22v1.184A2.993,2.993,0,0,0,24,29a1,1,0,1,1-1,1H21a3,3,0,0,0,2,2.816V34h2V32.816A2.993,2.993,0,0,0,24,27a1,1,0,1,1,1-1h2a3,3,0,0,0-2-2.816V22Z"></path><path d="M52,49a1,1,0,0,1,1,1h2a3,3,0,0,0-2-2.816V46H51v1.184A2.993,2.993,0,0,0,52,53a1,1,0,1,1-1,1H49a3,3,0,0,0,2,2.816V58h2V56.816A2.993,2.993,0,0,0,52,51a1,1,0,0,1,0-2Z"></path><path d="M52,42l-.037,0a16.22,16.22,0,0,1-.994-4.529,3.617,3.617,0,0,0-.06-3.868v-.722A6.9,6.9,0,0,0,44,26a6.9,6.9,0,0,0-6.909,6.883V33.6a3.615,3.615,0,0,0-.054,3.877,16.463,16.463,0,0,1-2.3,7.271l-.794,1.313A4.578,4.578,0,0,0,30,50.57V57a1,1,0,0,0,1,1H44.019A9.994,9.994,0,1,0,52,42ZM42,52c0,.212.019.418.032.627L41.4,56H38.489a10.868,10.868,0,0,0,.6-3.706,10.139,10.139,0,0,0-.94-4.483,4.554,4.554,0,0,0,1.5-.763,5.323,5.323,0,0,0,3,1.421A9.935,9.935,0,0,0,42,52ZM38.76,36.5a1.7,1.7,0,0,1,0-1.806,1,1,0,0,0,.8-.526l1.282-2.405a1.428,1.428,0,0,1,1.83-.712,3.341,3.341,0,0,0,2.649,0,1.427,1.427,0,0,1,1.829.712l1.282,2.405a1,1,0,0,0,.8.526,1.7,1.7,0,0,1,0,1.806,1,1,0,0,0-.922,1,5.023,5.023,0,0,1-2.04,4.108l-1.819,1.3a.771.771,0,0,1-.918,0l-1.82-1.3A5.024,5.024,0,0,1,39.682,37.5,1,1,0,0,0,38.76,36.5ZM43.615,46.57a3.586,3.586,0,0,1-2.665-1.077,4.523,4.523,0,0,0,.47-1.643l.958.684a2.739,2.739,0,0,0,2.642.318A10.05,10.05,0,0,0,43.615,46.57Zm4.935-3.944v-.392a6.916,6.916,0,0,0,.951-1.4c.119.467.254.93.411,1.386A9.892,9.892,0,0,0,48.55,42.626ZM47.277,29.273a3.332,3.332,0,0,0-2.74-.058,1.352,1.352,0,0,1-1.073,0,3.337,3.337,0,0,0-2.739.057,4.853,4.853,0,0,1,6.552,0ZM38.506,40.85a6.9,6.9,0,0,0,.944,1.385v1.2a2.527,2.527,0,0,1-.414,1.4A2.59,2.59,0,0,1,36.87,46h-.551l.129-.214A18.515,18.515,0,0,0,38.506,40.85ZM32,50.57A2.59,2.59,0,0,1,34.58,48h1.147c.351,0,1.364,1.477,1.364,4.294a7.64,7.64,0,0,1-.8,3.706H32ZM52,60a8,8,0,1,1,8-8A8.009,8.009,0,0,1,52,60Z"></path><path d="M16.632,49.118a1,1,0,0,0-.134-1.063l-6.364-7.693a1,1,0,0,0-1.541,0L2.229,48.055A1,1,0,0,0,3,49.692H5.807C6.835,55.682,12.872,62,20.112,62a17.183,17.183,0,0,0,3.068-.281,1,1,0,0,0,0-1.968c-4.921-.893-8.708-5.707-9.574-10.059h2.122A1,1,0,0,0,16.632,49.118Zm1.656,10.727C12.575,58.87,8.1,53.478,7.682,48.607a1,1,0,0,0-1-.915H5.125l4.239-5.124L13.6,47.692H12.454a1,1,0,0,0-1,1.085A15.841,15.841,0,0,0,18.288,59.845Z"></path><path d="M47.368,14.882a1,1,0,0,0,.134,1.063l6.364,7.693a1,1,0,0,0,1.541,0l6.364-7.693A1,1,0,0,0,61,14.308H58.193C57.165,8.318,51.128,2,43.888,2a17.183,17.183,0,0,0-3.068.281,1,1,0,0,0,0,1.968c4.921.893,8.708,5.707,9.574,10.059H48.273A1,1,0,0,0,47.368,14.882ZM45.712,4.155c5.713.975,10.192,6.367,10.606,11.238a1,1,0,0,0,1,.915h1.56l-4.239,5.124L50.4,16.308h1.148a1,1,0,0,0,1-1.085A15.841,15.841,0,0,0,45.712,4.155Z"></path></svg>