<svg xmlns="http://www.w3.org/2000/svg" viewBox="0 0 32 32"><g id="Layer_1" display="none"></g><g id="Layer_2"></g><g id="Layer_3"></g><g id="Layer_4"><path d="m16.779 9.224c-1.028-.233-2.014-.027-2.781.581-.831.669-1.537 2.005-1.124 3.355.328 1.074 1.226 1.889 2.286 2.077.167.031.335.046.505.046.378 0 .759-.076 1.123-.226.166-.068.245-.258.176-.424-.068-.166-.261-.246-.424-.176-.286.117-.736.238-1.264.141-.824-.146-1.523-.785-1.78-1.627-.325-1.062.244-2.123.909-2.658.819-.65 1.75-.563 2.231-.455.811.184 1.522.688 1.813 1.282.238.502.128 1.023.091 1.163-.176.545-.469.926-.743 1.034-.105-.035-.234-.215-.249-.604 0-.003-.002-.006-.002-.009 0-.001.001-.003.001-.004-.02-.246.015-.57.098-.912.051-.204.123-.428.214-.672.063-.168-.023-.355-.191-.418-.167-.062-.355.023-.418.191-.018.049-.026.088-.043.136-.325-.307-.737-.498-1.173-.498-.508-.013-1.017.229-1.293.606-.349.443-.43 1.131-.207 1.752.191.532.57.907 1.007 1.001.086.021.176.031.267.031.403 0 .848-.2 1.236-.533.117.268.294.464.534.544.181.07.38.056.576-.038.479-.23.833-.878 1.012-1.431.069-.259.195-.936-.132-1.622-.382-.778-1.245-1.404-2.255-1.633zm-1.095 4.048c-.224-.048-.425-.268-.54-.587-.147-.409-.105-.864.112-1.14.156-.212.484-.34.769-.349.381 0 .751.24.962.601-.063.298-.091.573-.086.819-.396.495-.916.728-1.217.656z"></path><path d="m21.611 11.886-1.175-1.479-.24-1.935c-.028-.24-.217-.429-.457-.459l-1.877-.216-1.539-1.199c-.19-.148-.456-.148-.646 0l-1.479 1.173-1.937.241c-.24.03-.428.218-.458.457l-.216 1.876-1.199 1.54c-.148.19-.148.456 0 .646l1.173 1.479.241 1.937c.03.24.218.428.457.458l1.876.216 1.54 1.199c.095.074.209.111.323.111s.228-.037.323-.111l1.479-1.173 1.936-.241c.239-.029.428-.217.458-.457l.217-1.876 1.199-1.54s.001-.001.001-.002c.146-.19.146-.454 0-.645zm-1.712 1.786c-.058.073-.095.161-.107.258l-.229 1.841-1.84.229c-.096.012-.187.049-.259.107l-1.464 1.14-1.463-1.139c-.075-.059-.165-.096-.258-.107l-1.841-.229-.229-1.84c-.012-.094-.049-.184-.107-.259l-1.139-1.463 1.139-1.463c.059-.075.096-.165.107-.258l.229-1.841 1.84-.229c.094-.012.184-.049.259-.107l1.463-1.141 1.461 1.137c.075.06.166.098.261.109l1.841.229.229 1.844c.013.093.05.182.106.255l1.141 1.463z"></path><path d="m30.325 10.48c0-.295-.159-.57-.416-.716l-1.85-1.06v-3.486c0-.455-.37-.825-.825-.825h-6.723l-4.102-2.343c-.252-.145-.566-.145-.818 0l-4.103 2.343h-6.722c-.455 0-.825.37-.825.825v3.486l-1.851 1.06c-.255.147-.415.421-.415.716v2.7c0 .001.001.001.001.001 0 .001-.001.001-.001.002v15.128c0 .455.37.825.825.825h27c.455 0 .825-.37.825-.825v-15.127c0-.001-.001-.001-.001-.002s.001-.001.001-.001zm-.738-.152c.055.031.088.089.088.152v2.515l-1.615.924v-4.466zm-13.674-7.714c.054-.03.12-.03.174 0l3.114 1.779h-6.402zm-11.147 2.429h22.469c.097 0 .175.078.175.175v9.073l-11.322 6.475c-.054.03-.12.03-.174 0l-11.323-6.475v-9.073c0-.097.078-.175.175-.175zm-2.353 5.285 1.527-.874v4.465l-1.615-.924v-2.515c0-.063.034-.121.088-.152zm27.262 17.984c0 .097-.078.175-.175.175h-27c-.097 0-.175-.078-.175-.175v-14.568l13.266 7.586c.252.145.566.145.818 0l13.266-7.586z"></path><path d="m7.833 22.373h-2.997c-.452 0-.82.368-.82.82v2.997c0 .452.368.82.82.82h2.997c.452 0 .82-.368.82-.82v-2.997c0-.452-.368-.82-.82-.82zm.169 3.816c0 .094-.076.17-.17.17h-2.996c-.094 0-.17-.076-.17-.17v-2.997c0-.094.076-.17.17-.17h2.997c.094 0 .17.076.17.17v2.997z"></path><path d="m10.178 25.46h1.594c.18 0 .325-.146.325-.325s-.146-.325-.325-.325h-1.594c-.18 0-.325.146-.325.325s.146.325.325.325z"></path><path d="m13.07 26.359h-2.892c-.18 0-.325.146-.325.325s.146.325.325.325h2.892c.18 0 .325-.146.325-.325s-.145-.325-.325-.325z"></path><path d="m14.711 26.359h-.382c-.18 0-.325.146-.325.325s.146.325.325.325h.382c.18 0 .325-.146.325-.325s-.145-.325-.325-.325z"></path></g><g id="Layer_5"></g><g id="Layer_6"></g><g id="Layer_7"></g><g id="Layer_8"></g><g id="Layer_9"></g><g id="Layer_10"></g><g id="Layer_11"></g><g id="Layer_12"></g><g id="Layer_13"></g><g id="Layer_14"></g><g id="Layer_15"></g><g id="Layer_16"></g><g id="Layer_17"></g><g id="Layer_18"></g><g id="Layer_19"></g><g id="Layer_20"></g><g id="Layer_21"></g><g id="Layer_22"></g><g id="Layer_23"></g><g id="Layer_24"></g><g id="Layer_25"></g><g id="Layer_26"></g></svg>