<svg xmlns="http://www.w3.org/2000/svg" id="Layer_1" viewBox="0 0 64 64"><path d="m6.7563477 25.7646484c1.4248047.7817383 3.0385742 1.1269531 4.6611328.9946289.1835938-.0146484.359375-.0795898.5083008-.1879883l6.3876953-4.6503906c.2739258-.1992188.4282227-.5234375.4101563-.8613281l-.3051758-5.7631836c4.1191406-2.3222656 8.8012695-3.5463867 13.5815429-3.5463867s9.4624023 1.2241211 13.581543 3.5463867l-.3051758 5.7631836c-.0180664.3378906.1362305.6621094.4101563.8613281l6.3876953 4.6503906c.1489258.1083984.324707.1733398.5083008.1879883.2246094.0180664.4487305.0273438.6728516.0273438 1.394043 0 2.7602539-.3486328 3.9829102-1.019043.7333984-.3969727 1.3999023-.8920898 1.9799805-1.4716797 1.6103516-1.6035156 2.4975586-3.7373047 2.4975586-6.0078125 0-2.2714844-.8867188-4.4052734-2.4956055-6.0078125-7.2685548-7.274414-16.935547-11.2802734-27.220215-11.2802734s-19.9516602 4.0058594-27.2182617 11.2788086c-1.6108398 1.6040039-2.4975586 3.737793-2.4975586 6.0092773 0 2.2705078.887207 4.4042969 2.4975586 6.0078125.5805664.5800782 1.2470703 1.0751954 1.9746094 1.46875zm-.5615235-12.0703125c6.890625-6.8964843 16.0546875-10.6943359 25.8051758-10.6943359s18.9145508 3.7978516 25.8071289 10.6958008c1.230957 1.2260742 1.9086914 2.8569336 1.9086914 4.5917969 0 1.7353516-.6777344 3.3657227-1.909668 4.5922852-.4443359.4438477-.9555664.8232422-1.5244141 1.1308594-1.0014648.5498047-2.1347656.8095703-3.2670898.7709961l-5.7124023-4.1586914.3085938-5.8330078c.0195313-.3710938-.168457-.7231445-.4882813-.9125977-4.5512695-2.7001954-9.7807617-4.1274415-15.1225586-4.1274415s-10.5712891 1.4272461-15.1225586 4.1274414c-.3198242.1894531-.5078125.5415039-.4882813.9125977l.3085938 5.8330078-5.7124023 4.1586914c-1.1435547.0371094-2.2661133-.2216797-3.2724609-.7739258-.5634766-.3046875-1.074707-.684082-1.519043-1.1279297 0-.0004883-.0004883-.0004883-.0009766-.0009766-1.230957-1.2255859-1.9086914-2.855957-1.9086914-4.5913086 0-1.7348632.6777344-3.3657226 1.9106445-4.5932617z"></path><path d="m60.6000977 39.7001953-17.6000977-13.2001953v-7c0-.5522461-.4477539-1-1-1h-20c-.5522461 0-1 .4477539-1 1v7l-17.6010742 13.2011719c-1.5244141 1.1469726-2.3989258 2.8959961-2.3989258 4.7988281v12.5c0 3.3085938 2.6914063 6 6 6h50c3.3085938 0 6-2.6914063 6-6v-12.5c0-1.902832-.8745117-3.6518555-2.3999023-4.7998047zm.3999023 17.2998047c0 2.2055664-1.7944336 4-4 4h-50c-2.2055664 0-4-1.7944336-4-4v-12.5c0-1.2685547.5834961-2.4350586 1.6000977-3.2001953l18-13.5c.2519531-.1884766.3999023-.4848633.3999023-.7998047v-6.5h18v6.5c0 .3149414.1479492.6113281.3999023.7998047l17.9990234 13.4990234c1.0175782.7661133 1.6010743 1.9326172 1.6010743 3.2011719z"></path><path d="m32 33c-6.0654297 0-11 4.9345703-11 11s4.9345703 11 11 11 11-4.9345703 11-11-4.9345703-11-11-11zm0 20c-4.9624023 0-9-4.0375977-9-9s4.0375977-9 9-9 9 4.0375977 9 9-4.0375977 9-9 9z"></path></svg>